<svg width="20" height="23" viewBox="0 0 20 23" fill="none" xmlns="http://www.w3.org/2000/svg">
<path d="M6.15387 8.43335C6.35789 8.43335 6.55354 8.51412 6.6978 8.6579C6.84206 8.80168 6.92311 8.99668 6.92311 9.20002V18.4C6.92311 18.6033 6.84206 18.7984 6.6978 18.9421C6.55354 19.0859 6.35789 19.1667 6.15387 19.1667C5.94986 19.1667 5.7542 19.0859 5.60995 18.9421C5.46569 18.7984 5.38464 18.6033 5.38464 18.4V9.20002C5.38464 8.99668 5.46569 8.80168 5.60995 8.6579C5.7542 8.51412 5.94986 8.43335 6.15387 8.43335ZM10 8.43335C10.204 8.43335 10.3997 8.51412 10.544 8.6579C10.6882 8.80168 10.7693 8.99668 10.7693 9.20002V18.4C10.7693 18.6033 10.6882 18.7984 10.544 18.9421C10.3997 19.0859 10.204 19.1667 10 19.1667C9.79602 19.1667 9.60036 19.0859 9.4561 18.9421C9.31184 18.7984 9.2308 18.6033 9.2308 18.4V9.20002C9.2308 8.99668 9.31184 8.80168 9.4561 8.6579C9.60036 8.51412 9.79602 8.43335 10 8.43335ZM14.6154 9.20002C14.6154 8.99668 14.5344 8.80168 14.3901 8.6579C14.2459 8.51412 14.0502 8.43335 13.8462 8.43335C13.6422 8.43335 13.4465 8.51412 13.3023 8.6579C13.158 8.80168 13.077 8.99668 13.077 9.20002V18.4C13.077 18.6033 13.158 18.7984 13.3023 18.9421C13.4465 19.0859 13.6422 19.1667 13.8462 19.1667C14.0502 19.1667 14.2459 19.0859 14.3901 18.9421C14.5344 18.7984 14.6154 18.6033 14.6154 18.4V9.20002Z" fill="black"/>
<path fill-rule="evenodd" clip-rule="evenodd" d="M20 4.6C20 5.00667 19.8379 5.39667 19.5494 5.68423C19.2609 5.97179 18.8696 6.13333 18.4615 6.13333H17.6923V19.9333C17.6923 20.7467 17.3681 21.5267 16.7911 22.1018C16.2141 22.6769 15.4314 23 14.6154 23H5.38462C4.56856 23 3.78594 22.6769 3.2089 22.1018C2.63187 21.5267 2.30769 20.7467 2.30769 19.9333V6.13333H1.53846C1.13044 6.13333 0.739122 5.97179 0.450605 5.68423C0.162087 5.39667 0 5.00667 0 4.6V3.06667C0 2.66 0.162087 2.26999 0.450605 1.98244C0.739122 1.69488 1.13044 1.53333 1.53846 1.53333H6.92308C6.92308 1.12667 7.08517 0.736659 7.37368 0.449103C7.6622 0.161547 8.05351 0 8.46154 0L11.5385 0C11.9465 0 12.3378 0.161547 12.6263 0.449103C12.9148 0.736659 13.0769 1.12667 13.0769 1.53333H18.4615C18.8696 1.53333 19.2609 1.69488 19.5494 1.98244C19.8379 2.26999 20 2.66 20 3.06667V4.6ZM4.02769 6.13333L3.84615 6.2238V19.9333C3.84615 20.34 4.00824 20.73 4.29676 21.0176C4.58528 21.3051 4.97659 21.4667 5.38462 21.4667H14.6154C15.0234 21.4667 15.4147 21.3051 15.7032 21.0176C15.9918 20.73 16.1538 20.34 16.1538 19.9333V6.2238L15.9723 6.13333H4.02769ZM1.53846 4.6V3.06667H18.4615V4.6H1.53846Z" fill="black"/>
</svg>
