<svg width="85" height="100" viewBox="0 0 85 100" fill="none" xmlns="http://www.w3.org/2000/svg">
<rect width="85" height="100" rx="10" fill="white"/>
<rect x="0.5" y="0.5" width="84" height="99" rx="9.5" stroke="#C4C4C4"/>
<path fill-rule="evenodd" clip-rule="evenodd" d="M43.2222 57.4444V64.0556C43.2222 64.306 43.1461 64.5463 43.0107 64.7234C42.8752 64.9005 42.6915 65 42.5 65C42.3085 65 42.1248 64.9005 41.9893 64.7234C41.8539 64.5463 41.7778 64.306 41.7778 64.0556V57.4444H36.7222C36.5307 57.4444 36.347 57.3449 36.2115 57.1678C36.0761 56.9907 36 56.7505 36 56.5C36 56.2495 36.0761 56.0093 36.2115 55.8322C36.347 55.6551 36.5307 55.5556 36.7222 55.5556H41.7778V48.9444C41.7778 48.694 41.8539 48.4537 41.9893 48.2766C42.1248 48.0995 42.3085 48 42.5 48C42.6915 48 42.8752 48.0995 43.0107 48.2766C43.1461 48.4537 43.2222 48.694 43.2222 48.9444V55.5556H48.2778C48.4693 55.5556 48.653 55.6551 48.7885 55.8322C48.9239 56.0093 49 56.2495 49 56.5C49 56.7505 48.9239 56.9907 48.7885 57.1678C48.653 57.3449 48.4693 57.4444 48.2778 57.4444H43.2222Z" fill="#C4C4C4"/>
</svg>
