<svg width="20" height="20" viewBox="0 0 20 20" fill="none" xmlns="http://www.w3.org/2000/svg">
<path d="M13.5651 9.54645L13.5645 9.54698L12.694 10.4175L12.694 10.4175L12.6921 10.4194C11.5569 11.567 11.3286 13.2707 12.0173 14.6444L10.5183 16.1352L8.07364 13.6906L7.72072 13.3377L7.36716 13.69L4.11728 16.9282L4.11665 16.9289C3.90689 17.1386 2.95741 17.9039 1.98447 18.5631C1.50082 18.8907 1.03552 19.1755 0.672229 19.3472C0.658759 19.3536 0.645571 19.3597 0.632665 19.3656C0.638764 19.3522 0.645097 19.3385 0.651672 19.3245C0.82244 18.9601 1.10586 18.4934 1.43209 18.0083C2.0887 17.032 2.85065 16.0806 3.05953 15.8717L6.29781 12.6335L6.65063 12.2806L6.29854 11.9271L3.85438 9.47279L5.35282 7.98253C6.71973 8.67165 8.43435 8.44237 9.57176 7.29352C9.57211 7.29316 9.57246 7.29281 9.57281 7.29246L10.4395 6.42578C10.4398 6.42543 10.4402 6.42508 10.4406 6.42473C11.5908 5.28595 11.818 3.57076 11.1292 2.19605L12.6184 0.706828L19.2916 7.36958L17.7925 8.86056C17.1696 8.55023 16.4684 8.42215 15.7708 8.4958C14.9371 8.58381 14.1587 8.95458 13.5651 9.54645ZM0.229551 19.5003C0.22987 19.4999 0.234582 19.4995 0.24273 19.5C0.233306 19.5009 0.229232 19.5007 0.229551 19.5003ZM0.499791 19.756C0.500316 19.7642 0.499857 19.7689 0.499496 19.7692C0.499135 19.7695 0.498872 19.7655 0.499791 19.756Z" stroke="black"/>
</svg>
