<svg width="23" height="23" viewBox="0 0 23 23" fill="none" xmlns="http://www.w3.org/2000/svg">
<path d="M22.7889 0.21114C22.8558 0.277899 22.9089 0.357206 22.9451 0.444519C22.9814 0.531832 23 0.625435 23 0.719966C23 0.814498 22.9814 0.908101 22.9451 0.995413C22.9089 1.08273 22.8558 1.16203 22.7889 1.22879L20.3913 3.62631C21.2582 4.74272 21.688 6.13703 21.6002 7.54775C21.5123 8.95847 20.9128 10.2887 19.9141 11.2889L19.4829 11.7201L19.4786 11.7244L19.0345 12.1686C18.7515 12.4512 18.3679 12.6099 17.9679 12.6099C17.568 12.6099 17.1844 12.4512 16.9014 12.1686L10.8314 6.09858C10.6913 5.95843 10.5801 5.79205 10.5042 5.60893C10.4284 5.42581 10.3893 5.22954 10.3893 5.03134C10.3893 4.83313 10.4284 4.63686 10.5042 4.45374C10.5801 4.27063 10.6913 4.10424 10.8314 3.96409L11.7097 3.0873C12.7095 2.08737 14.0401 1.48706 15.4514 1.39918C16.8627 1.3113 18.2575 1.74192 19.3737 2.6101L21.7712 0.21114C21.838 0.144211 21.9173 0.0911112 22.0046 0.0548804C22.0919 0.0186496 22.1855 0 22.28 0C22.3746 0 22.4682 0.0186496 22.5555 0.0548804C22.6428 0.0911112 22.7221 0.144211 22.7889 0.21114ZM18.8879 4.09346C18.0686 3.27989 16.9604 2.82402 15.8058 2.82564C14.6512 2.82726 13.5443 3.28622 12.7273 4.10208L12.2961 4.53329C12.2307 4.59869 12.1788 4.67634 12.1434 4.76179C12.108 4.84725 12.0898 4.93884 12.0898 5.03134C12.0898 5.12383 12.108 5.21543 12.1434 5.30088C12.1788 5.38634 12.2307 5.46398 12.2961 5.52938L17.4706 10.7039C17.7437 10.9784 18.1893 10.9799 18.4638 10.7068L18.4667 10.7039L18.8979 10.2727C19.7141 9.45589 20.1733 8.3489 20.175 7.19419C20.1766 6.03949 19.7205 4.93122 18.9065 4.11214L18.8965 4.10352L18.8879 4.09346Z" fill="black"/>
<path d="M10.5713 9.55397C10.6382 9.62073 10.6913 9.70004 10.7275 9.78735C10.7638 9.87467 10.7824 9.96827 10.7824 10.0628C10.7824 10.1573 10.7638 10.2509 10.7275 10.3382C10.6913 10.4256 10.6382 10.5049 10.5713 10.5716L8.20394 12.9375L10.0624 14.796L12.4283 12.4287C12.4952 12.3619 12.5745 12.3089 12.6618 12.2727C12.7491 12.2365 12.8427 12.2179 12.9372 12.2179C13.0317 12.2179 13.1252 12.2365 13.2125 12.2727C13.2999 12.3089 13.3792 12.3619 13.446 12.4287C13.5128 12.4955 13.5658 12.5748 13.602 12.6622C13.6382 12.7495 13.6568 12.843 13.6568 12.9375C13.6568 13.032 13.6382 13.1256 13.602 13.2129C13.5658 13.3002 13.5128 13.3795 13.446 13.4464L11.0787 15.8123L11.7212 16.4548C12.1227 16.8564 12.3483 17.4011 12.3483 17.969C12.3483 18.537 12.1227 19.0816 11.7212 19.4833L11.29 19.9145C10.2901 20.9144 8.95951 21.5147 7.5482 21.6026C6.13689 21.6905 4.74208 21.2599 3.62594 20.3917L1.22842 22.7892C1.09347 22.9242 0.910436 23 0.719589 23C0.528742 23 0.345712 22.9242 0.210763 22.7892C0.0758135 22.6543 2.84384e-09 22.4712 0 22.2804C-2.84384e-09 22.0895 0.0758135 21.9065 0.210763 21.7716L2.60972 19.374C1.74176 18.2582 1.31113 16.8638 1.39874 15.4528C1.48635 14.0418 2.08616 12.7114 3.08549 11.7115L3.5167 11.2802C3.71559 11.0812 3.95176 10.9233 4.21171 10.8156C4.47166 10.7078 4.75029 10.6524 5.03168 10.6524C5.31307 10.6524 5.5917 10.7078 5.85165 10.8156C6.11159 10.9233 6.34776 11.0812 6.54666 11.2802L7.18772 11.9213L9.55362 9.55397C9.62038 9.48705 9.69969 9.43395 9.787 9.39771C9.87431 9.36148 9.96792 9.34283 10.0624 9.34283C10.157 9.34283 10.2506 9.36148 10.3379 9.39771C10.4252 9.43395 10.5045 9.48705 10.5713 9.55397ZM4.11033 18.9055C4.92927 19.72 6.03775 20.1766 7.1928 20.1753C8.34786 20.174 9.45526 19.7147 10.2723 18.8983L10.7035 18.4671C10.7689 18.4017 10.8208 18.324 10.8562 18.2386C10.8916 18.1531 10.9098 18.0615 10.9098 17.969C10.9098 17.8765 10.8916 17.7849 10.8562 17.6995C10.8208 17.614 10.7689 17.5364 10.7035 17.471L5.52901 12.2965C5.39698 12.1648 5.21813 12.0909 5.03168 12.0909C4.84522 12.0909 4.66638 12.1648 4.53435 12.2965L4.10314 12.7277C3.28545 13.546 2.82612 14.6554 2.82612 15.8123C2.82612 16.9691 3.28545 18.0785 4.10314 18.8968L4.11033 18.9055Z" fill="black"/>
</svg>
